<?xml version="1.0" encoding="UTF-8"?>
<!-- Generated by Pixelmator Pro 2.4.3 -->
<svg width="753" height="400" viewBox="0 0 753 400" xmlns="http://www.w3.org/2000/svg" xmlns:xlink="http://www.w3.org/1999/xlink">
    <g id="Gauge-without-Needle">
        <path id="Path" fill="#01b04f" fill-rule="evenodd" stroke="none" d="M 43.761276 386.03656 C 43.761276 389.63797 372.271423 392.403015 372.271423 392.403015 L 149.444778 153.023529 C 149.444778 153.023529 43.761276 221.781479 43.761276 386.03656 Z"/>
        <path id="Path-copy-2" fill="#dd1a23" fill-rule="evenodd" stroke="none" d="M 696.961731 386.03656 C 696.961731 389.63797 368.451538 392.403015 368.451538 392.403015 L 591.278198 153.023529 C 591.278198 153.023529 696.961731 221.781479 696.961731 386.03656 Z"/>
        <path id="Path-copy" fill="#fecd06" fill-rule="evenodd" stroke="none" d="M 144.570831 151.7715 C 141.996307 154.289841 369.734314 391.063843 369.734314 391.063843 L 370.998138 65.166168 C 370.998138 65.166168 261.991119 36.914154 144.570831 151.7715 Z"/>
        <path id="Path-copy-1" fill="#f57d20" fill-rule="evenodd" stroke="none" d="M 372.048615 62.486328 C 368.447418 62.526031 369.303802 391.046661 369.303802 391.046661 L 595.522827 156.449478 C 595.522827 156.449478 536.293701 60.67572 372.048615 62.486328 Z"/>
        <path id="EXTREME" fill="#000000" fill-rule="evenodd" stroke="none" d="M 722.361328 352.521484 L 720.369141 335.365234 L 750.15625 331.90625 L 752.148438 349.0625 L 746.974609 349.664063 L 745.714844 338.824219 L 739.175781 339.583984 L 740.345703 349.669922 L 735.169922 350.269531 L 734 340.183594 L 726.318359 341.076172 L 727.576172 351.916016 L 722.361328 352.521484 Z M 719.517578 327.841797 L 718.289063 322.042969 L 732.175781 319.099609 C 732.831299 318.960663 733.588806 318.809814 734.449219 318.648438 C 735.309692 318.48703 737.60376 318.096588 741.330078 317.474609 L 741.291016 317.292969 L 716.710938 314.597656 L 715.503906 308.898438 L 737.023438 296.957031 L 736.984375 296.777344 C 732.356018 298.023865 729.260498 298.812805 727.695313 299.144531 L 714.048828 302.035156 L 712.871094 296.476563 L 742.208984 290.259766 L 744.003906 298.728516 L 723.041016 310.425781 L 723.066406 310.546875 L 747.060547 313.15625 L 748.855469 321.623047 L 719.517578 327.841797 Z M 710.980469 290.488281 L 705.833984 274 L 734.462891 265.068359 L 739.607422 281.554688 L 734.632813 283.107422 L 731.382813 272.689453 L 725.097656 274.650391 L 728.121094 284.34375 L 723.148438 285.896484 L 720.123047 276.203125 L 712.742188 278.505859 L 715.992188 288.923828 L 710.980469 290.488281 Z M 704.78125 270.359375 L 702.173828 263.802734 L 710.222656 252.898438 L 708.972656 249.753906 L 698.279297 254.005859 L 695.929688 248.097656 L 723.796875 237.015625 L 727.025391 245.136719 C 728.531067 248.923492 728.955017 251.999878 728.298828 254.365234 C 727.642639 256.730591 725.909912 258.471252 723.101563 259.587891 C 721.462341 260.239685 719.825256 260.367096 718.189453 259.972656 C 716.553589 259.578247 715.045166 258.69989 713.664063 257.335938 C 709.066711 264.020325 706.105835 268.361053 704.78125 270.359375 Z M 718.929688 254.041016 C 719.444946 254.033325 719.994385 253.913757 720.578125 253.681641 C 721.899658 253.156158 722.659607 252.328156 722.857422 251.197266 C 723.055298 250.066376 722.775452 248.548676 722.017578 246.642578 L 721.304688 244.849609 L 713.775391 247.84375 L 714.533203 249.75 C 715.27594 251.617981 716.13501 252.873688 717.111328 253.515625 C 717.660522 253.876709 718.267273 254.050903 718.929688 254.041016 Z M 690.517578 236.535156 L 687.720703 230.824219 L 709.900391 219.962891 L 706.318359 212.648438 L 711.070313 210.320313 L 721.03125 230.658203 L 716.279297 232.986328 L 712.697266 225.673828 L 690.517578 236.535156 Z M 683.824219 222.710938 L 680.138672 216.455078 L 686.369141 204.6875 L 673.056641 204.439453 L 669.597656 198.572266 L 687.974609 199.291016 L 695.757813 183.894531 L 699.320313 189.9375 L 693.304688 200.982422 L 705.818359 200.964844 L 709.296875 206.867188 L 691.703125 206.306641 L 683.824219 222.710938 Z M 668.101563 196.572266 L 658.234375 182.398438 L 682.845703 165.261719 L 692.714844 179.4375 L 688.4375 182.414063 L 682.203125 173.458984 L 676.798828 177.220703 L 682.601563 185.552734 L 678.324219 188.529297 L 672.523438 180.197266 L 666.177734 184.615234 L 672.412109 193.572266 L 668.101563 196.572266 Z"/>
        <path id="HIGH" fill="#000000" fill-rule="evenodd" stroke="none" d="M 562.398438 80.828125 L 556.890625 77.695313 L 563.291016 66.445313 L 552.966797 60.572266 L 546.566406 71.822266 L 541.039063 68.677734 L 555.869141 42.611328 L 561.396484 45.755859 L 555.583984 55.972656 L 565.908203 61.845703 L 571.71875 51.628906 L 577.228516 54.763672 L 562.398438 80.828125 Z M 535.189453 64.271484 C 533.173462 64.049561 531.338989 63.702026 529.683594 63.230469 C 528.028259 62.758972 526.391052 62.156799 524.771484 61.423828 C 520.647766 59.557434 518.046021 56.920776 516.96875 53.513672 C 515.891418 50.106567 516.379211 46.136414 518.431641 41.601563 C 520.427673 37.191284 523.245483 34.322998 526.884766 32.998047 C 530.524048 31.673096 534.5802 32.022583 539.052734 34.046875 C 541.855896 35.315552 544.305969 37.098755 546.402344 39.398438 L 542.378906 43.162109 C 540.836609 41.263245 538.989258 39.827026 536.833984 38.851563 C 534.329834 37.718201 531.942505 37.650757 529.673828 38.650391 C 527.405151 39.650024 525.62738 41.569641 524.341797 44.410156 C 522.999817 47.375244 522.582764 49.916016 523.089844 52.029297 C 523.596863 54.142578 525.008911 55.722717 527.326172 56.771484 C 528.534668 57.31842 529.819092 57.749756 531.177734 58.064453 L 533.757813 52.363281 L 528.580078 50.021484 L 530.761719 45.199219 L 541.601563 50.105469 L 535.189453 64.271484 Z M 506.365234 53.210938 L 500.412109 50.974609 L 510.960938 22.902344 L 516.912109 25.138672 L 506.365234 53.210938 Z M 493.335938 48.259766 L 487.263672 46.441406 L 490.978516 34.042969 L 479.601563 30.632813 L 475.886719 43.033203 L 469.794922 41.207031 L 478.404297 12.480469 L 484.494141 14.304688 L 481.121094 25.564453 L 492.498047 28.972656 L 495.871094 17.714844 L 501.943359 19.533203 L 493.335938 48.259766 Z"/>
        <path id="MODERATE" fill="#000000" fill-rule="evenodd" stroke="none" d="M 130.787109 117.181641 L 111.818359 93.953125 L 118.523438 88.478516 L 138.527344 101.751953 L 138.621094 101.673828 L 129.947266 79.150391 L 136.652344 73.673828 L 155.621094 96.902344 L 151.029297 100.652344 L 142.050781 89.658203 C 141.626953 89.139221 141.145111 88.534607 140.607422 87.84375 C 140.069733 87.152893 138.672302 85.292786 136.412109 82.265625 L 136.267578 82.382813 L 145.134766 105.464844 L 140.623047 109.150391 L 120.148438 95.494141 L 120.005859 95.611328 C 123.234497 99.154114 125.353226 101.543945 126.365234 102.783203 L 135.189453 113.587891 L 130.787109 117.181641 Z M 164.515625 88.617188 C 163.615372 88.607361 162.725311 88.491791 161.845703 88.269531 C 158.327255 87.380493 155.205048 84.84491 152.478516 80.664063 C 149.751999 76.483154 148.702469 72.615845 149.332031 69.0625 C 149.961609 65.509216 152.206253 62.474426 156.066406 59.957031 C 159.926575 57.439697 163.603882 56.624939 167.097656 57.513672 C 170.591461 58.402466 173.698914 60.932129 176.417969 65.101563 C 179.129547 69.259521 180.181335 73.126892 179.576172 76.705078 C 178.970993 80.283264 176.745193 83.327942 172.896484 85.837891 C 170.009964 87.720306 167.21637 88.646667 164.515625 88.617188 Z M 165.964844 82.728516 C 167.277573 82.713409 168.616608 82.261749 169.982422 81.371094 C 174.23204 78.599731 174.516663 74.391174 170.833984 68.744141 C 167.143845 63.085632 163.183731 61.634216 158.957031 64.390625 C 156.837952 65.772583 155.705307 67.528015 155.558594 69.65625 C 155.41188 71.784546 156.253845 74.250305 158.083984 77.056641 C 159.914108 79.863037 161.824875 81.629822 163.816406 82.355469 C 164.438766 82.582245 165.068314 82.705627 165.703125 82.726563 C 165.790405 82.729431 165.877335 82.729523 165.964844 82.728516 Z M 190.064453 74.644531 L 176.136719 48.085938 L 184.474609 43.712891 C 188.810242 41.439148 192.776718 40.818237 196.375 41.849609 C 199.973267 42.880981 202.848923 45.449158 205.001953 49.554688 C 207.294708 53.926636 207.806442 57.928162 206.537109 61.558594 C 205.267792 65.188965 202.284882 68.236938 197.585938 70.701172 L 190.064453 74.644531 Z M 193.257813 67.041016 L 195.673828 65.773438 C 201.099411 62.928162 202.283401 58.592834 199.228516 52.767578 C 196.237137 47.063477 192.223572 45.533752 187.185547 48.175781 L 184.1875 49.748047 L 193.257813 67.041016 Z M 217.8125 60.607422 L 206.070313 33.013672 L 221.962891 26.251953 L 224.003906 31.044922 L 213.962891 35.318359 L 216.541016 41.376953 L 225.882813 37.400391 L 227.923828 42.195313 L 218.580078 46.171875 L 221.607422 53.287109 L 231.650391 49.013672 L 233.705078 53.845703 L 217.8125 60.607422 Z M 239.546875 51.583984 L 229.931641 23.177734 L 238.208984 20.376953 C 242.069 19.070374 245.162231 18.805603 247.490234 19.583984 C 249.818268 20.362427 251.466553 22.184265 252.435547 25.046875 C 253.00116 26.717773 253.04541 28.359619 252.566406 29.972656 C 252.087402 31.585754 251.131226 33.045227 249.697266 34.353516 C 256.133331 39.29248 260.313568 42.475586 262.240234 43.902344 L 255.556641 46.166016 L 245.085938 37.560547 L 241.880859 38.646484 L 245.570313 49.544922 L 239.546875 51.583984 Z M 262.25 43.873047 L 265.302734 12.099609 L 272.849609 10.234375 L 290.388672 36.919922 L 283.736328 38.5625 L 279.914063 32.154297 L 269.300781 34.777344 L 268.902344 42.228516 L 262.25 43.873047 Z M 299.285156 35.546875 L 295.269531 11.177734 L 287.234375 12.501953 L 286.373047 7.279297 L 308.716797 3.597656 L 309.578125 8.820313 L 301.542969 10.144531 L 305.558594 34.511719 L 299.285156 35.546875 Z M 240.222656 33.75 L 242.166016 33.091797 C 244.070129 32.447266 245.368683 31.654541 246.060547 30.712891 C 246.752411 29.771301 246.868591 28.619873 246.408203 27.259766 C 245.952209 25.912659 245.164001 25.111877 244.044922 24.855469 C 242.925873 24.598999 241.394135 24.799316 239.451172 25.457031 L 237.625 26.074219 L 240.222656 33.75 Z M 318.193359 32.714844 L 315.414063 2.855469 L 332.609375 1.253906 L 333.09375 6.441406 L 322.228516 7.453125 L 322.837891 14.009766 L 332.949219 13.068359 L 333.431641 18.255859 L 323.322266 19.197266 L 324.039063 26.896484 L 334.904297 25.884766 L 335.390625 31.113281 L 318.193359 32.714844 Z M 269.574219 29.216797 L 277.160156 27.341797 C 273.656891 21.544678 271.681396 18.264343 271.232422 17.501953 C 270.783417 16.739563 270.44696 16.133301 270.222656 15.681641 C 270.204468 17.489197 269.988495 22.000793 269.574219 29.216797 Z"/>
        <path id="LOW" fill="#000000" fill-rule="evenodd" stroke="none" d="M 61.343246 217.031158 L 58.042877 223.476105 L 42.169762 219.910736 C 41.602158 219.789063 40.453735 219.489044 38.72448 219.010651 C 36.995224 218.532257 35.850349 218.180298 35.289856 217.954712 C 35.909737 218.364349 36.872147 219.087616 38.177086 220.124603 C 39.482033 221.16156 40.40435 221.918091 40.944099 222.394226 L 53.087646 233.152679 L 49.796623 239.579407 L 19.616508 232.720581 L 22.468102 227.151978 L 38.786095 231.198669 C 41.781502 231.979736 44.333641 232.741272 46.442612 233.483246 C 45.786224 233.054932 44.797768 232.337494 43.477249 231.330963 C 42.156708 230.324432 41.154007 229.499847 40.469086 228.857178 L 27.507481 217.311066 L 30.246883 211.961578 L 47.191376 215.729889 C 47.948097 215.902313 49.079597 216.212891 50.585899 216.661591 C 52.092209 217.110321 53.372597 217.520172 54.427078 217.891144 C 53.540001 217.283264 52.456039 216.482361 51.17514 215.488434 C 49.894249 214.494507 48.871727 213.663635 48.107544 212.995728 L 35.276909 202.138916 L 38.128502 196.570313 Z M 31.551979 243.434052 C 36.191101 245.200378 39.318733 247.70813 40.934967 250.957367 C 42.551201 254.206635 42.54184 257.978241 40.906891 262.272308 C 39.271935 266.566376 36.770523 269.38913 33.402561 270.740662 C 30.034595 272.092224 26.01833 271.879944 21.353642 270.103882 C 16.688953 268.32782 13.565731 265.818115 11.983887 262.574615 C 10.402042 259.331146 10.43103 255.556061 12.070847 251.249207 C 13.710663 246.942352 16.204464 244.120331 19.552341 242.783112 C 22.90023 241.445862 26.90007 241.662842 31.551979 243.434052 Z M 23.764114 263.888275 C 26.895195 265.080444 29.479336 265.383942 31.516579 264.798767 C 33.553825 264.213593 35.022522 262.738892 35.922722 260.374603 C 37.727982 255.63324 35.48037 252.063141 29.179855 249.664246 C 22.866539 247.260498 18.812199 248.416473 17.016674 253.132294 C 16.116478 255.496582 16.233223 257.582275 17.366943 259.389404 C 18.500645 261.196533 20.633018 262.696136 23.764114 263.888275 Z M 29.267048 297.018219 L 0.437853 288.758575 L 2.189207 282.645691 L 25.970337 289.459045 L 29.320511 277.765656 L 34.368576 279.211945 Z"/>
        <path id="path1" fill="#000000" fill-rule="evenodd" stroke="none" d="M 46.480137 398.553375 C 37.945942 398.551666 31.028996 391.632416 31.028996 383.099762 C 31.028996 195.52272 183.421936 43.129944 370.99881 43.129944 C 558.575745 43.129944 710.968323 195.52272 710.968628 383.099762 C 710.967773 391.633942 704.049194 398.552551 695.515015 398.553375 L 625.976196 398.553375 C 620.403259 398.632141 615.219604 395.702332 612.410095 390.888733 C 609.600708 386.075134 609.600708 380.121887 612.410095 375.308289 C 615.219604 370.494659 620.403259 367.567352 625.976196 367.646118 L 678.614014 367.646118 C 674.935974 294.024689 645.701111 227.413208 599.657288 176.171875 L 575.029419 200.799698 C 571.130127 204.810104 565.368225 206.400116 559.963806 204.957794 C 554.559448 203.515503 550.354126 199.266281 548.97168 193.846313 C 547.589111 188.426285 549.243225 182.682632 553.296387 178.827896 L 577.926697 154.200073 C 526.886719 107.677826 460.270996 78.146637 386.452423 74.519653 L 386.452423 128.122375 C 386.53125 133.695343 383.60144 138.879028 378.787811 141.688446 C 373.974243 144.497925 368.020966 144.497925 363.207336 141.688446 C 358.393707 138.879028 355.46637 133.695343 355.545197 128.122375 L 355.545197 74.519653 C 281.726624 78.146637 215.110901 107.677826 164.070938 154.200073 L 188.698746 178.827896 C 192.751984 182.682632 194.406006 188.426285 193.023483 193.846313 C 191.640961 199.266281 187.438248 203.515503 182.033844 204.957794 C 176.629486 206.400116 170.867447 204.810104 166.968185 200.799698 L 142.340363 176.171875 C 96.296455 227.413208 67.061562 294.024689 63.383625 367.646118 L 116.021454 367.646118 C 121.594398 367.567352 126.778091 370.494659 129.587509 375.308289 C 132.396973 380.121887 132.396973 386.075134 129.587509 390.888733 C 126.778053 395.702332 121.59436 398.632141 116.021454 398.553375 L 46.480137 398.553375 Z"/>
    </g>
</svg>
