<?xml version="1.0" encoding="UTF-8"?>
<!-- Generated by Pixelmator Pro 2.4.3 -->
<svg width="122" height="229" viewBox="0 0 122 229" xmlns="http://www.w3.org/2000/svg" xmlns:xlink="http://www.w3.org/1999/xlink">
    <g id="New-Group">
        <path id="Path" fill="#f4f4f4" fill-rule="evenodd" stroke="none" d="M 53.139275 40.334869 L 51.521305 42.78302 C 38.832851 61.984375 34.594673 91.898895 29.23336 114.13533 C 21.187078 147.507568 11.335451 194.673599 49.351845 211.512711 C 78.652649 224.490784 102.184074 212.167465 105.736565 180.99527 C 110.860992 136.038147 95.587379 75.486969 66.139198 40.346069 C 61.425247 34.720642 56.70153 33.858414 50.288933 36.418854 C 48.789509 37.017548 54.029469 38.98793 53.139275 40.334869 Z"/>
        <path id="Gauge" fill="#000000" fill-rule="evenodd" stroke="none" d="M 60.802101 228.462784 C 27.901344 228.462784 0.945105 201.505493 0.943901 168.604584 C 0.944235 157.972351 4.166521 145.319611 8.633288 129.322769 C 13.099989 113.325211 18.983431 95.094498 24.844795 77.569244 C 36.567509 42.518723 48.332535 10.852249 48.332535 10.852249 C 50.170593 6.037186 54.624451 2.716461 59.763863 2.330139 C 65.661087 1.850311 71.164421 5.323532 73.271667 10.852249 C 73.271667 10.852249 85.036476 42.518723 96.759407 77.569244 C 102.620911 95.094498 108.504082 113.325211 112.970917 129.322769 C 117.437752 145.319611 120.659904 157.972351 120.660301 168.604584 C 120.660034 201.506165 93.703461 228.462784 60.802101 228.462784 Z M 60.802101 201.858185 C 79.325729 201.858185 94.057716 187.128159 94.057846 168.604584 C 94.057785 165.467316 91.461853 151.863464 87.199051 136.596863 C 82.936249 121.330284 77.180649 103.158875 71.40284 85.883728 C 66.099731 70.027847 64.993523 67.499863 60.802101 55.746979 C 56.610748 67.499863 55.50441 70.027847 50.201366 85.883728 C 44.423687 103.158875 38.66782 121.330284 34.405155 136.596863 C 30.142422 151.863464 27.546423 165.467972 27.546356 168.604584 C 27.546959 187.12883 42.279461 201.858185 60.802101 201.858185 Z"/>
    </g>
</svg>
